HIERARCHY
ROOT Hips
{
	OFFSET 52.354000 4.061912 54.065899
	CHANNELS 6 Xposition Yposition Zposition Xrotation Yrotation Zrotation
	JOINT spine
	{
		OFFSET 0.000000 -0.458068 7.965679
		CHANNELS 3 Xrotation Yrotation Zrotation
		JOINT spine1
		{
			OFFSET 0.000000 -0.000002 10.243103
			CHANNELS 3 Xrotation Yrotation Zrotation
			JOINT spine2
			{
				OFFSET 0.000000 -0.000002 9.814751
				CHANNELS 3 Xrotation Yrotation Zrotation
				JOINT Neck
				{
					OFFSET 0.000000 -1.201384 25.198601
					CHANNELS 3 Xrotation Yrotation Zrotation
					JOINT Head
					{
						OFFSET 0.000000 -0.000001 7.613152
						CHANNELS 3 Xrotation Yrotation Zrotation
						End Site
						{
							OFFSET 0.000000 6.077327 18.428101
						}
					}
				}
				JOINT RightShoulder
				{
					OFFSET -4.132702 0.575449 10.599197
					CHANNELS 3 Xrotation Yrotation Zrotation
					JOINT RightArm
					{
						OFFSET 0.000000 -0.000002 13.901802
						CHANNELS 3 Xrotation Yrotation Zrotation
						JOINT RightArmRoll
						{
							OFFSET 0.000000 -0.000001 7.017891
							CHANNELS 3 Xrotation Yrotation Zrotation
							JOINT RightForeArm
							{
								OFFSET 0.000000 -0.000003 20.440598
								CHANNELS 3 Xrotation Yrotation Zrotation
								JOINT RightForeArmRoll
								{
									OFFSET 0.000000 -0.000001 7.875153
									CHANNELS 3 Xrotation Yrotation Zrotation
									JOINT RightHand
									{
										OFFSET 0.000000 -0.000003 15.803696
										CHANNELS 3 Xrotation Yrotation Zrotation
										End Site
										{
											OFFSET 0.000000 0.000000 0.100006
										}
									}
								}
							}
						}
					}
				}
				JOINT LeftShoulder
				{
					OFFSET 4.132702 0.575449 10.599197
					CHANNELS 3 Xrotation Yrotation Zrotation
					JOINT LeftArm
					{
						OFFSET 0.000000 -0.000002 13.901802
						CHANNELS 3 Xrotation Yrotation Zrotation
						JOINT LeftArmRoll
						{
							OFFSET 0.000000 -0.000001 7.017883
							CHANNELS 3 Xrotation Yrotation Zrotation
							JOINT LeftForeArm
							{
								OFFSET 0.000000 -0.000003 20.440605
								CHANNELS 3 Xrotation Yrotation Zrotation
								JOINT LeftForeArmRoll
								{
									OFFSET 0.000000 -0.000001 7.875153
									CHANNELS 3 Xrotation Yrotation Zrotation
									JOINT LeftHand
									{
										OFFSET 0.000000 -0.000003 15.803696
										CHANNELS 3 Xrotation Yrotation Zrotation
										End Site
										{
											OFFSET 0.000000 0.000000 0.100006
										}
									}
								}
							}
						}
					}
				}
			}
		}
	}
	JOINT RightUpLeg
	{
		OFFSET -7.060482 1.086100 -1.294701
		CHANNELS 3 Xrotation Yrotation Zrotation
		JOINT RightUpLegRoll
		{
			OFFSET 0.000000 -0.000003 18.530804
			CHANNELS 3 Xrotation Yrotation Zrotation
			JOINT RightLeg
			{
				OFFSET 0.000000 0.000003 -22.947601
				CHANNELS 3 Xrotation Yrotation Zrotation
				JOINT RightLegRoll
				{
					OFFSET 0.000000 -0.000003 23.022598
					CHANNELS 3 Xrotation Yrotation Zrotation
					JOINT RightFoot
					{
						OFFSET 0.000000 -0.000003 19.162498
						CHANNELS 3 Xrotation Yrotation Zrotation
						JOINT RightToeBase
						{
							OFFSET 0.000000 -0.000002 16.018799
							CHANNELS 3 Xrotation Yrotation Zrotation
							End Site
							{
								OFFSET 0.006790 0.894205 7.757820
							}
						}
					}
				}
			}
		}
	}
	JOINT LeftUpLeg
	{
		OFFSET 7.060482 1.086100 -1.294701
		CHANNELS 3 Xrotation Yrotation Zrotation
		JOINT LeftUpLegRoll
		{
			OFFSET 0.000000 -0.000003 18.530895
			CHANNELS 3 Xrotation Yrotation Zrotation
			JOINT LeftLeg
			{
				OFFSET 0.000000 -0.000004 22.947502
				CHANNELS 3 Xrotation Yrotation Zrotation
				JOINT LeftLegRoll
				{
					OFFSET 0.000000 -0.000004 23.235497
					CHANNELS 3 Xrotation Yrotation Zrotation
					JOINT LeftFoot
					{
						OFFSET 0.000000 -0.000003 18.949600
						CHANNELS 3 Xrotation Yrotation Zrotation
						JOINT LeftToeBase
						{
							OFFSET 0.000000 -0.000002 16.018799
							CHANNELS 3 Xrotation Yrotation Zrotation
							End Site
							{
								OFFSET -0.030430 0.894206 7.757812
							}
						}
					}
				}
			}
		}
	}
}
MOTION
Frames: 13
Frame Time: 0.041667
54.614803 -28.974716 97.055603 -4.011222 -0.208286 1.368394 -1.457781 0.192971 -0.040308 1.088106 0.395833 -0.076259 2.733185 0.394712 -0.081012 10.464370 1.773651 -1.279782 19.855655 -3.820062 -0.360417 -14.843893 -72.653330 -17.877914 -65.323540 -115.359409 -69.553100 -0.000002 0.000000 0.000002 14.372000 -17.649306 1.860512 -0.000001 0.000006 -2.999992 -5.000174 -7.999013 0.000151 -10.476616 60.555358 12.458546 -48.512402 119.565153 53.310791 0.000001 0.000013 -0.000000 17.217749 13.573361 -1.329997 -0.000006 -0.000011 3.000001 -5.000220 7.998724 -0.000189 3.853012 -175.036192 4.185026 179.999991 -0.000004 -1.314998 173.934210 -0.730890 -0.533672 -0.000007 0.000000 0.037681 68.292924 6.999576 1.921731 25.456868 -7.346021 -0.000004 1.752331 174.197691 -2.508928 -0.000020 -0.000004 -1.199259 -8.444889 2.300916 0.385126 -0.000003 0.000005 -0.159510 70.482457 -6.930189 -1.910030 25.456928 7.353533 0.000002 
54.620007 -28.968216 97.056091 -4.003885 -0.203018 1.360030 -1.458300 0.192971 -0.040644 1.087016 0.395237 -0.077730 2.732094 0.394112 -0.082475 10.467741 1.751005 -1.285038 19.848543 -3.807630 -0.368017 -14.861076 -72.670959 -17.897186 -65.365566 -115.370460 -69.596978 -0.000002 0.000000 0.000002 14.333806 -17.659830 1.857926 0.000001 0.000007 -2.999992 -5.000173 -7.999013 0.000150 -10.464089 60.536581 12.442821 -48.504459 119.609494 53.314432 0.000002 0.000013 0.000000 17.139549 13.581374 -1.324984 -0.000001 -0.000011 3.000001 -5.000221 7.998724 -0.000188 3.833380 -175.043064 4.175021 179.999991 -0.000005 -1.314998 173.924620 -0.727889 -0.533476 -0.000006 0.000000 0.037680 68.296933 6.999571 1.921775 25.456871 -7.346023 -0.000004 1.738644 174.190656 -2.514945 -0.000020 -0.000004 -1.199300 -8.452881 2.305330 0.385318 -0.000003 0.000005 -0.159508 70.482464 -6.930190 -1.910030 25.456926 7.353531 0.000003 
54.622505 -28.958416 97.055595 -3.996773 -0.197895 1.352083 -1.458839 0.193013 -0.040987 1.085886 0.394729 -0.079267 2.730965 0.393599 -0.084004 10.471617 1.728443 -1.290703 19.841037 -3.795519 -0.375969 -14.878421 -72.688676 -17.916640 -65.407244 -115.381252 -69.641183 -0.000002 0.000001 0.000002 14.296798 -17.670847 1.855601 0.000000 0.000007 -2.999991 -5.000173 -7.999012 0.000150 -10.451069 60.517641 12.426531 -48.496857 119.653986 53.318297 0.000000 0.000013 0.000000 17.061111 13.589096 -1.319867 -0.000005 -0.000011 3.000001 -5.000222 7.998723 -0.000190 3.814299 -175.049948 4.165678 179.999991 -0.000004 -1.314998 173.915208 -0.724888 -0.533277 -0.000006 -0.000000 0.037680 68.301256 6.999590 1.921706 25.456866 -7.346021 -0.000005 1.725331 174.182610 -2.520918 -0.000020 -0.000004 -1.199360 -8.460654 2.309705 0.385495 -0.000003 0.000005 -0.159503 70.482245 -6.930184 -1.910042 25.456924 7.353532 0.000003 
54.609505 -28.952709 97.058090 -3.989843 -0.192875 1.344418 -1.459396 0.193081 -0.041336 1.084726 0.394283 -0.080850 2.729803 0.393147 -0.085581 10.475795 1.705941 -1.296650 19.833235 -3.783629 -0.384149 -14.895936 -72.706483 -17.936265 -65.450595 -115.391456 -69.687730 -0.000002 0.000001 0.000001 14.260568 -17.682287 1.853464 0.000005 0.000007 -2.999991 -5.000174 -7.999011 0.000149 -10.437750 60.498619 12.409872 -48.489600 119.698614 53.322440 0.000001 0.000014 0.000000 16.982459 13.596709 -1.314678 -0.000006 -0.000012 3.000001 -5.000221 7.998723 -0.000189 3.795621 -175.056806 4.156814 179.999991 -0.000005 -1.314998 173.905864 -0.721901 -0.533079 -0.000006 -0.000001 0.037680 68.305778 6.999590 1.921719 25.456871 -7.346023 -0.000004 1.712269 174.174578 -2.526852 -0.000020 -0.000004 -1.199430 -8.468256 2.314051 0.385664 -0.000004 0.000005 -0.159500 70.481924 -6.930182 -1.910061 25.456928 7.353532 0.000002 
54.600105 -28.952316 97.052094 -3.983000 -0.187913 1.336926 -1.459960 0.193168 -0.041687 1.083556 0.393873 -0.082460 2.728633 0.392731 -0.087184 10.480173 1.683477 -1.302761 19.825340 -3.771871 -0.392455 -14.913529 -72.724289 -17.955985 -65.495613 -115.401087 -69.736443 -0.000002 0.000001 0.000002 14.224774 -17.693888 1.851393 0.000001 0.000007 -2.999991 -5.000180 -7.999012 0.000151 -10.424234 60.479508 12.392979 -48.481229 119.743967 53.325220 0.000002 0.000012 0.000000 16.903798 13.604302 -1.309495 -0.000006 -0.000012 3.000001 -5.000221 7.998724 -0.000188 3.777169 -175.063691 4.148227 179.999991 -0.000005 -1.314998 173.896616 -0.719891 -0.532981 -0.000006 -0.000000 0.037680 68.310423 6.999595 1.921725 25.456868 -7.346021 -0.000003 1.699364 174.166545 -2.532758 -0.000020 -0.000004 -1.199500 -8.475769 2.318379 0.385828 -0.000004 0.000005 -0.159496 70.481603 -6.930178 -1.909980 25.456926 7.353530 0.000003 
54.608505 -28.947319 97.053894 -3.976187 -0.182969 1.329462 -1.460518 0.193258 -0.042039 1.082376 0.393471 -0.084077 2.727453 0.392324 -0.088795 10.484553 1.661013 -1.308902 19.817345 -3.760144 -0.400804 -14.931164 -72.742102 -17.975735 -65.538780 -115.411236 -69.783155 -0.000002 0.000001 0.000002 14.189083 -17.705669 1.849361 0.000003 0.000006 -2.999990 -5.000175 -7.999014 0.000149 -10.410731 60.460500 12.376107 -48.474358 119.788732 53.329649 0.000002 0.000012 0.000001 16.825032 13.611879 -1.304263 -0.000006 -0.000011 3.000001 -5.000222 7.998723 -0.000189 3.758779 -175.069578 4.139761 179.999991 -0.000004 -1.314998 173.887382 -0.716904 -0.532778 -0.000006 -0.000000 0.037680 68.315060 6.999597 1.921733 25.456865 -7.346023 -0.000004 1.686487 174.159510 -2.538625 -0.000020 -0.000004 -1.199580 -8.483261 2.322706 0.385992 -0.000003 0.000005 -0.159491 70.481186 -6.930209 -1.909912 25.456924 7.353532 0.000003 
54.608704 -28.943413 97.054993 -3.969330 -0.177997 1.321919 -1.461080 0.193340 -0.042390 1.081205 0.393052 -0.085680 2.726283 0.391900 -0.090392 10.488837 1.638541 -1.314971 19.809340 -3.748349 -0.409073 -14.948801 -72.759908 -17.995496 -65.581803 -115.421318 -69.829614 -0.000001 0.000002 0.000001 14.153172 -17.717272 1.847250 -0.000001 0.000006 -2.999991 -5.000175 -7.999014 0.000149 -10.397293 60.441389 12.359291 -48.467391 119.833415 53.334014 0.000004 0.000012 0.000000 16.746360 13.619426 -1.299011 -0.000004 -0.000011 3.000001 -5.000222 7.998723 -0.000191 3.740261 -175.076449 4.131115 179.999991 -0.000004 -1.314998 173.878120 -0.714895 -0.532680 -0.000007 0.000000 0.037680 68.319691 6.999603 1.921738 25.456871 -7.346022 -0.000005 1.673543 174.151478 -2.544530 -0.000020 -0.000004 -1.199659 -8.490793 2.327042 0.386160 -0.000003 0.000005 -0.159488 70.480872 -6.930202 -1.909931 25.456924 7.353532 0.000002 
54.609505 -28.938614 97.055191 -3.962337 -0.172956 1.314170 -1.461629 0.193402 -0.042738 1.080055 0.392588 -0.087251 2.725133 0.391431 -0.091955 10.492918 1.616022 -1.320823 19.801642 -3.736386 -0.417177 -14.966382 -72.777612 -18.015193 -65.625100 -115.431672 -69.875998 -0.000001 0.000000 0.000001 14.116708 -17.728615 1.845000 0.000003 0.000006 -2.999990 -5.000175 -7.999012 0.000150 -10.384103 60.422360 12.342795 -48.458894 119.878617 53.336701 0.000004 0.000012 0.000000 16.667810 13.627132 -1.293788 0.000000 -0.000011 3.000002 -5.000226 7.998724 -0.000190 3.721474 -175.083334 4.122130 179.999991 -0.000005 -1.314998 173.868749 -0.711909 -0.532478 -0.000006 -0.000000 0.037680 68.324233 6.999597 1.921649 25.456868 -7.346022 -0.000004 1.660409 174.143446 -2.550461 -0.000020 -0.000004 -1.199729 -8.498447 2.331386 0.386336 -0.000004 0.000005 -0.159483 70.480551 -6.930199 -1.909948 25.456928 7.353531 0.000003 
54.611305 -28.924412 97.049286 -3.955167 -0.167802 1.306088 -1.462159 0.193431 -0.043079 1.078935 0.392055 -0.088768 2.724012 0.390892 -0.093464 10.496704 1.593425 -1.326338 19.794339 -3.724168 -0.424990 -14.983948 -72.795323 -18.034848 -65.668567 -115.442232 -69.922019 -0.000002 0.000001 0.000002 14.079362 -17.739533 1.842523 0.000001 0.000006 -2.999989 -5.000174 -7.999012 0.000150 -10.371370 60.403475 12.326815 -48.451456 119.923027 53.340714 0.000003 0.000013 -0.000000 16.589365 13.635001 -1.288565 -0.000004 -0.000011 3.000001 -5.000221 7.998723 -0.000190 3.702233 -175.090219 4.112631 179.999991 -0.000005 -1.314001 173.859282 -0.708908 -0.533271 -0.000007 0.000000 0.037681 68.328427 6.999570 1.921678 25.456868 -7.346022 -0.000006 1.646979 174.136411 -2.556401 -0.000020 -0.000004 -1.199780 -8.506279 2.335779 0.386526 -0.000003 0.000005 -0.159480 70.480442 -6.930200 -1.909856 25.456928 7.353532 0.000003 
54.610504 -28.922215 97.047592 -3.947716 -0.162492 1.297557 -1.462679 0.193415 -0.043412 1.077865 0.391424 -0.090212 2.722942 0.390257 -0.094900 10.499888 1.570735 -1.331406 19.787427 -3.711591 -0.432440 -15.001389 -72.812938 -18.054377 -65.708489 -115.453884 -69.963342 -0.000002 0.000001 0.000001 14.040701 -17.749855 1.839712 0.000002 0.000007 -2.999991 -5.000170 -7.999011 0.000150 -10.359127 60.384685 12.311431 -48.443643 119.967205 53.344481 0.000003 0.000013 0.000001 16.511134 13.643120 -1.283372 -0.000004 -0.000011 3.000000 -5.000226 7.998725 -0.000189 3.682368 -175.098101 4.102338 179.999991 -0.000005 -1.314001 173.849611 -0.704914 -0.532962 -0.000006 0.000000 0.037681 68.332231 6.999585 1.921741 25.456866 -7.346023 -0.000004 1.633141 174.128365 -2.562445 -0.000020 -0.000004 -1.199809 -8.514375 2.340210 0.386734 -0.000003 0.000005 -0.159478 70.480544 -6.930166 -1.909945 25.456926 7.353531 0.000003 
54.599003 -28.918419 97.050293 -3.939932 -0.156985 1.288448 -1.463157 0.193341 -0.043735 1.076845 0.390670 -0.091564 2.721922 0.389498 -0.096241 10.502574 1.547928 -1.335906 19.781107 -3.698566 -0.439393 -15.018684 -72.830464 -18.073732 -65.748876 -115.466001 -70.004207 -0.000000 0.000001 0.000002 14.000396 -17.759411 1.836491 0.000004 0.000006 -2.999990 -5.000175 -7.999011 0.000150 -10.347582 60.366018 12.296847 -48.436751 120.010508 53.349467 0.000003 0.000013 -0.000000 16.433145 13.651590 -1.278219 0.000001 -0.000011 3.000002 -5.000216 7.998723 -0.000189 3.661709 -175.105970 4.091125 179.999991 -0.000004 -1.314001 173.839721 -0.700923 -0.532655 -0.000007 -0.000000 0.037680 68.335708 6.999577 1.921719 25.456865 -7.346021 -0.000004 1.618783 174.119335 -2.568598 -0.000020 -0.000004 -1.199810 -8.522798 2.344708 0.386964 -0.000003 0.000005 -0.159478 70.480763 -6.930202 -1.909837 25.456928 7.353532 0.000003 
54.589905 -28.910316 97.048187 -3.931734 -0.151237 1.278636 -1.463617 0.193198 -0.044045 1.075894 0.389766 -0.092803 2.720972 0.388590 -0.097468 10.504462 1.524970 -1.339703 19.775585 -3.684985 -0.445766 -15.035755 -72.847806 -18.092838 -65.789857 -115.478678 -70.044478 -0.000001 0.000000 0.000002 13.958123 -17.768133 1.832809 0.000004 0.000006 -2.999991 -5.000177 -7.999011 0.000150 -10.336860 60.347597 12.283253 -48.427752 120.054071 53.352370 0.000001 0.000012 0.000000 16.355569 13.660298 -1.273113 -0.000001 -0.000012 3.000002 -5.000221 7.998724 -0.000189 3.640093 -175.114835 4.078721 179.999991 -0.000005 -1.314000 173.829557 -0.694947 -0.533131 -0.000006 -0.000000 0.037680 68.338556 6.999597 1.921640 25.456871 -7.346022 -0.000004 1.603787 174.111289 -2.574825 -0.000020 -0.000004 -1.199790 -8.531614 2.349272 0.387221 -0.000004 0.000005 -0.159480 70.481296 -6.930207 -1.909904 25.456928 7.353531 0.000003 
54.597607 -28.908119 97.045792 -3.923050 -0.145208 1.267992 -1.464030 0.192973 -0.044342 1.075014 0.388686 -0.093909 2.720091 0.387507 -0.098561 10.505548 1.501838 -1.342686 19.770848 -3.670774 -0.451445 -15.052651 -72.865066 -18.111736 -65.827587 -115.492707 -70.079769 -0.000001 0.000001 0.000001 13.913551 -17.775741 1.828545 0.000004 0.000007 -2.999990 -5.000173 -7.999013 0.000149 -10.327079 60.329312 12.270778 -48.419539 120.096678 53.356427 0.000002 0.000014 0.000000 16.278337 13.669537 -1.268084 0.000002 -0.000011 3.000001 -5.000221 7.998725 -0.000190 3.617345 -175.124684 4.064945 179.999991 -0.000004 -1.314001 173.819080 -0.687979 -0.532506 -0.000006 -0.000000 0.037680 68.340769 6.999609 1.921704 25.456871 -7.346022 -0.000005 1.588039 174.102246 -2.581197 -0.000020 -0.000004 -1.199720 -8.540889 2.353922 0.387510 -0.000003 0.000005 -0.159483 70.482245 -6.930186 -1.909842 25.456923 7.353533 0.000002 
